Coordinates
version=1
nRows=17
nColumns=40
inDegrees=yes

Units are S.I. units (second, meters, Newtons, ...)
Angles are in degrees.

endheader
time	pelvis_tilt	pelvis_list	pelvis_rotation	pelvis_tx	pelvis_ty	pelvis_tz	hip_flexion_r	hip_adduction_r	hip_rotation_r	knee_angle_r	knee_angle_r_beta	ankle_angle_r	subtalar_angle_r	mtp_angle_r	hip_flexion_l	hip_adduction_l	hip_rotation_l	knee_angle_l	knee_angle_l_beta	ankle_angle_l	subtalar_angle_l	mtp_angle_l	lumbar_extension	lumbar_bending	lumbar_rotation	arm_flex_r	arm_add_r	arm_rot_r	elbow_flex_r	pro_sup_r	wrist_flex_r	wrist_dev_r	arm_flex_l	arm_add_l	arm_rot_l	elbow_flex_l	pro_sup_l	wrist_flex_l	wrist_dev_l
     53.84250000	     -4.81988935	     -3.62470459	      3.96384736	      1.11003805	      0.90712394	      0.46038220	      1.49355524	     -3.72193863	    -12.83088208	     37.54896883	     37.54896883	     11.02515087	    -14.82896108	    -13.76428337	     32.22126143	     -3.87021222	     -1.60781973	     30.62668838	     30.62668838	      6.67809985	    -16.88591378	      5.81059092	     -8.25412154	      3.52607661	      3.29267592	     49.39656895	    -15.97449709	     -3.99727041	    118.68852257	     44.02007452	      0.00000000	      0.00000000	    -11.73766700	     -6.01667641	      6.26723810	     19.90902842	     44.45852620	      0.00000000	      0.00000000
     53.85400000	     -4.75584584	     -3.38626139	      3.80772793	      1.11007825	      0.90897862	      0.45742218	      3.42907327	     -4.70950881	    -12.67324515	     41.80700039	     41.80700039	      8.27054667	    -16.93602628	    -13.69597025	     31.26491625	     -3.54862125	     -1.88636341	     30.40051932	     30.40051932	      7.39599978	    -16.82142319	      5.52835676	     -8.29946334	      3.45008104	      3.08397892	     47.18768919	    -15.71544101	     -4.01762133	    118.23934043	     44.03301319	      0.00000000	      0.00000000	    -10.65651603	     -6.09271765	      6.26849945	     20.38410965	     44.49262220	      0.00000000	      0.00000000
     53.86550000	     -4.65392496	     -3.13264326	      3.62456508	      1.10998821	      0.91091784	      0.45450690	      5.38175932	     -5.81524857	    -12.70020921	     45.98229124	     45.98229124	      5.58500708	    -18.25476580	    -12.98112823	     30.21860675	     -3.22332234	     -2.21051208	     30.07978322	     30.07978322	      8.06219224	    -16.71420361	      5.24015869	     -8.40948242	      3.40470948	      2.89593953	     44.86176435	    -15.42243927	     -4.04194550	    117.60644984	     44.04987128	      0.00000000	      0.00000000	     -9.46096257	     -6.19442143	      6.24559361	     20.97319383	     44.52969562	      0.00000000	      0.00000000
     53.87700000	     -4.65372768	     -2.81577940	      3.39881423	      1.10967503	      0.91268468	      0.45175882	      7.57531840	     -7.06087387	    -12.75178981	     50.15284157	     50.15284157	      3.24127182	    -18.84314969	    -11.27053722	     29.21867403	     -2.85400250	     -2.64911143	     29.61227062	     29.61227062	      8.59208353	    -16.56630229	      4.96093203	     -8.40148805	      3.24543438	      2.80627326	     42.29715159	    -15.14972599	     -4.16617788	    116.67504904	     44.07883577	      0.00000000	      0.00000000	     -8.23887832	     -6.35700879	      6.17968091	     21.69988508	     44.57406063	      0.00000000	      0.00000000
     53.88850000	     -4.61228531	     -2.78974586	      3.15714669	      1.10913654	      0.91446021	      0.44958860	     10.16576636	     -7.48784037	    -12.00140119	     54.71687914	     54.71687914	      3.89135615	    -18.86469115	      0.31043276	     28.22097039	     -2.80541323	     -2.92956277	     29.12602867	     29.12602867	      8.85834643	    -16.53576234	      4.07367971	     -8.44758127	      3.33816648	      3.13601545	     39.54113215	    -14.82528441	     -5.97127221	    115.16534500	     44.21554772	      0.00000000	      0.00000000	     -7.05019297	     -6.63758986	      5.82896711	     23.49415475	     44.71185801	      0.00000000	      0.00000000
     53.90000000	     -4.59146330	     -2.61392712	      2.91530987	      1.10848368	      0.91610520	      0.44733108	     12.57111135	     -8.26729723	    -11.63061241	     58.54729967	     58.54729967	      3.30485065	    -18.99250779	      6.89094423	     27.18886992	     -2.61017645	     -3.36633699	     28.53916259	     28.53916259	      9.12030253	    -16.34159161	      3.30876833	     -8.52067036	      3.35451747	      2.72927345	     37.18396739	    -14.35646848	     -5.44659928	    113.59778035	     44.28622991	      0.00000000	      0.00000000	     -5.90370848	     -6.84205184	      5.58113565	     24.48782987	     44.84738627	      0.00000000	      0.00000000
     53.91150000	     -4.49828001	     -2.42404882	      2.63486161	      1.10781213	      0.91780233	      0.44513473	     14.61483295	     -9.10464416	    -11.42245187	     61.54590876	     61.54590876	      1.38118574	    -19.20404560	      7.70847757	     26.10051395	     -2.39826308	     -3.78120768	     28.00828415	     28.00828415	      9.59600953	    -16.07793484	      3.11249266	     -8.68671689	      3.38130850	      2.60357333	     34.54692789	    -14.02992520	     -5.24268375	    112.10124796	     44.31981643	      0.00000000	      0.00000000	     -4.47351244	     -7.06711876	      5.47687529	     25.25324869	     44.89622093	      0.00000000	      0.00000000
     53.92300000	     -4.42997881	     -2.35949800	      2.33835772	      1.10698883	      0.91936290	      0.44333405	     16.84996339	     -9.49086193	    -10.86227378	     64.42747094	     64.42747094	      1.05835223	    -19.23959793	     12.47205382	     25.04747016	     -2.34448469	     -4.21092923	     27.42435358	     27.42435358	      9.79684487	    -15.90194579	      2.28926751	     -8.75980927	      3.44560513	      2.40693378	     32.30063326	    -13.31696776	     -5.99749381	    108.87146741	     44.47120636	      0.00000000	      0.00000000	     -3.36042004	     -7.39448100	      4.93747597	     27.02093854	     45.04604918	      0.00000000	      0.00000000
     53.93450000	     -4.34660118	     -2.28725882	      2.01026752	      1.10615846	      0.92093467	      0.44161964	     18.85448410	     -9.84297490	    -10.36936249	     66.63642832	     66.63642832	     -0.10236290	    -19.28147277	     12.82979264	     23.98728737	     -2.27471814	     -4.62035701	     26.87242211	     26.87242211	     10.21788379	    -15.62539590	      2.07081370	     -8.90799424	      3.55815220	      2.50970361	     29.69343069	    -13.37395514	     -5.84091933	    106.57191007	     44.53394399	      0.00000000	      0.00000000	     -1.76132742	     -7.66938891	      4.75065932	     27.98886673	     45.10963205	      0.00000000	      0.00000000
     53.94600000	     -4.21241169	     -2.32631930	      1.65486162	      1.10526127	      0.92249153	      0.44018141	     20.76153357	     -9.86556060	     -9.76797473	     68.44704562	     68.44704562	     -0.82565773	    -19.26606028	     13.10205383	     22.90968671	     -2.34369011	     -5.02578131	     26.36507731	     26.36507731	     10.58259435	    -15.38721124	      1.69296435	     -9.08199204	      3.74311742	      2.63807374	     27.38948868	    -13.17574010	     -6.07765397	    103.21933050	     44.64593660	      0.00000000	      0.00000000	     -0.15822378	     -7.97488882	      4.49795207	     29.17758920	     45.18434745	      0.00000000	      0.00000000
     53.95750000	     -4.13460056	     -2.37406947	      1.29594028	      1.10435103	      0.92393485	      0.43889495	     22.67160666	     -9.73339652	     -9.10271693	     69.86429675	     69.86429675	     -1.34445091	    -19.18860238	     12.87520427	     21.87526184	     -2.41793122	     -5.45570014	     25.81561527	     25.81561527	     10.93557610	    -15.09621743	      1.39325106	     -9.19878735	      3.96030514	      2.69854433	     25.05044199	    -13.02467990	     -6.12075111	    100.04797809	     44.74255217	      0.00000000	      0.00000000	      1.41699284	     -8.30758466	      4.28828230	     30.26174749	     45.24650336	      0.00000000	      0.00000000
     53.96900000	     -3.99642078	     -2.51164562	      0.88536429	      1.10346741	      0.92540747	      0.43790557	     24.41091829	     -9.36634532	     -8.42505923	     70.82879992	     70.82879992	     -1.71781614	    -19.05095078	     12.14425699	     20.80373681	     -2.60862960	     -5.86590516	     25.31973486	     25.31973486	     11.29077737	    -14.82468426	      0.97096355	     -9.37770676	      4.21902900	      2.80803860	     23.03872398	    -12.80499448	     -6.27131797	     95.92259510	     44.87457528	      0.00000000	      0.00000000	      3.04567371	     -8.64185205	      4.06731771	     31.48070776	     45.31134041	      0.00000000	      0.00000000
     53.98050000	     -3.87977241	     -2.67194854	      0.50365319	      1.10259284	      0.92675241	      0.43704002	     26.02035994	     -8.96180579	     -7.88884948	     71.33475958	     71.33475958	     -2.27870102	    -18.89256060	      9.93138790	     19.72816681	     -2.81323712	     -6.27335167	     24.75328950	     24.75328950	     11.45299970	    -14.58913054	      0.16864224	     -9.46658411	      4.49105207	      2.05606689	     22.08325983	    -11.81697885	     -6.07015678	     90.12163648	     45.05661236	      0.00000000	      0.00000000	      4.08911568	     -9.25912988	      3.69257593	     32.95639449	     45.40050803	      0.00000000	      0.00000000
     53.99200000	     -3.76093884	     -2.85986348	      0.11431596	      1.10174285	      0.92804147	      0.43635636	     27.57656244	     -8.46449869	     -7.39365899	     71.53369480	     71.53369480	     -2.23561959	    -18.60826317	      9.42827253	     18.69474066	     -3.02383798	     -6.59123499	     24.28144484	     24.28144484	     11.83339957	    -14.47058212	      0.07668657	     -9.70019650	      4.82459487	      2.28617525	     19.62770852	    -11.88490619	     -5.68561416	     87.72478375	     45.11149107	      0.00000000	      0.00000000	      5.87317300	     -9.67701044	      3.49891182	     33.94847041	     45.45615080	      0.00000000	      0.00000000
     54.00350000	     -3.61204014	     -3.02869319	     -0.31988481	      1.10094379	      0.92926267	      0.43573150	     28.92260715	     -8.01241693	     -6.96817741	     71.25969476	     71.25969476	     -2.64864944	    -18.34340874	      6.94365452	     17.58182222	     -3.25910012	     -7.12130010	     23.74582295	     23.74582295	     12.08331240	    -14.04758765	     -0.56106818	     -9.77865439	      5.04502339	      2.16285838	     19.11353718	    -11.73918499	     -5.71877278	     80.45415878	     45.34350004	      0.00000000	      0.00000000	      7.33078170	    -10.15318337	      3.35279181	     35.28131609	     45.51407037	      0.00000000	      0.00000000
     54.01500000	     -3.51094641	     -3.13455839	     -0.74747864	      1.10021774	      0.93031257	      0.43519753	     30.26747303	     -7.60780448	     -6.57973194	     70.73744746	     70.73744746	     -2.46898235	    -18.08631217	      6.28375801	     16.44838913	     -3.36120881	     -7.49841786	     23.08081738	     23.08081738	     12.41171781	    -13.82867232	     -0.66170045	     -9.96236750	      5.25436009	      2.76513850	     17.02389114	    -12.38923870	     -5.34748967	     77.08098733	     45.43124410	      0.00000000	      0.00000000	      9.19237103	    -10.41594610	      3.13071292	     36.61464024	     45.57570468	      0.00000000	      0.00000000
     54.02650000	     -3.38434432	     -3.28204715	     -1.13442652	      1.09948893	      0.93124048	      0.43481150	     31.38134514	     -7.25723444	     -6.44265609	     69.76432096	     69.76432096	     -2.74171007	    -18.01089980	      4.38927368	     15.35921688	     -3.53819312	     -7.95625636	     22.53157051	     22.53157051	     12.56426683	    -13.54725918	     -1.30482036	    -10.03990080	      5.45913301	      1.93133870	     17.24057110	    -11.74911149	     -4.50326674	     69.39393885	     45.63983710	      0.00000000	      0.00000000	     10.13823966	    -11.34264798	      2.88907376	     38.26575228	     45.64642822	      0.00000000	      0.00000000
